HIERARCHY
ROOT Hips
{
	OFFSET 0.000000 0.000000 0.000000
	CHANNELS 6 Xposition Yposition Zposition Zrotation Yrotation Xrotation 
	JOINT Spine
	{
		OFFSET 0.000000 10.181600 0.131500
		CHANNELS 3 Zrotation Yrotation Xrotation
		JOINT Spine1
		{
			OFFSET 0.000000 10.083500 -1.000800
			CHANNELS 3 Zrotation Yrotation Xrotation
			JOINT Spine2
			{
				OFFSET 0.000000 9.100000 -1.373400
				CHANNELS 3 Zrotation Yrotation Xrotation
				JOINT Neck
				{
					OFFSET 0.000000 16.671700 -2.516200
					CHANNELS 3 Zrotation Yrotation Xrotation
					JOINT Head
					{
						OFFSET -0.000000 9.617900 1.685000
						CHANNELS 3 Zrotation Yrotation Xrotation
						JOINT HeadTop_End
						{
							OFFSET -0.000000 17.815200 2.585000
							CHANNELS 3 Zrotation Yrotation Xrotation
							End Site
							{
								OFFSET 0.000000 0.000000 0.000000
							}
						}
						JOINT LeftEye
						{
							OFFSET 3.067600 6.409500 9.283600
							CHANNELS 3 Zrotation Yrotation Xrotation
							End Site
							{
								OFFSET 0.000000 0.000000 0.000000
							}
						}
						JOINT RightEye
						{
							OFFSET -3.067600 6.409500 9.283500
							CHANNELS 3 Zrotation Yrotation Xrotation
							End Site
							{
								OFFSET 0.000000 0.000000 0.000000
							}
						}
					}
				}
				JOINT LeftShoulder
				{
					OFFSET 4.570400 10.946000 -2.628000
					CHANNELS 3 Zrotation Yrotation Xrotation
					JOINT LeftArm
					{
						OFFSET 10.592400 -0.524600 -2.232100
						CHANNELS 3 Zrotation Yrotation Xrotation
						JOINT LeftForeArm
						{
							OFFSET 27.841500 -0.000100 0.000000
							CHANNELS 3 Zrotation Yrotation Xrotation
							JOINT LeftHand
							{
								OFFSET 28.328800 -0.000000 0.000000
								CHANNELS 3 Zrotation Yrotation Xrotation
								JOINT LeftHandThumb1
								{
									OFFSET 2.466100 -1.575000 2.682400
									CHANNELS 3 Zrotation Yrotation Xrotation
									JOINT LeftHandThumb2
									{
										OFFSET 3.229800 -1.864700 1.864700
										CHANNELS 3 Zrotation Yrotation Xrotation
										JOINT LeftHandThumb3
										{
											OFFSET 2.652600 -1.531500 1.531500
											CHANNELS 3 Zrotation Yrotation Xrotation
											JOINT LeftHandThumb4
											{
												OFFSET 1.954600 -1.128500 1.128500
												CHANNELS 3 Zrotation Yrotation Xrotation
												End Site
												{
													OFFSET 0.000000 0.000000 0.000000
												}
											}
										}
									}
								}
								JOINT LeftHandIndex1
								{
									OFFSET 9.109300 -0.517100 2.260100
									CHANNELS 3 Zrotation Yrotation Xrotation
									JOINT LeftHandIndex2
									{
										OFFSET 3.676400 -0.000000 0.000000
										CHANNELS 3 Zrotation Yrotation Xrotation
										JOINT LeftHandIndex3
										{
											OFFSET 2.883100 0.000000 -0.000000
											CHANNELS 3 Zrotation Yrotation Xrotation
											JOINT LeftHandIndex4
											{
												OFFSET 2.392700 0.000000 0.000000
												CHANNELS 3 Zrotation Yrotation Xrotation
												End Site
												{
													OFFSET 0.000000 0.000000 0.000000
												}
											}
										}
									}
								}
								JOINT LeftHandMiddle1
								{
									OFFSET 9.533400 -0.000000 0.000000
									CHANNELS 3 Zrotation Yrotation Xrotation
									JOINT LeftHandMiddle2
									{
										OFFSET 3.698200 0.000000 0.000000
										CHANNELS 3 Zrotation Yrotation Xrotation
										JOINT LeftHandMiddle3
										{
											OFFSET 2.950900 -0.000000 0.000000
											CHANNELS 3 Zrotation Yrotation Xrotation
											JOINT LeftHandMiddle4
											{
												OFFSET 2.833900 -0.000000 -0.000000
												CHANNELS 3 Zrotation Yrotation Xrotation
												End Site
												{
													OFFSET 0.000000 0.000000 0.000000
												}
											}
										}
									}
								}
								JOINT LeftHandRing1
								{
									OFFSET 9.104500 -0.043900 -1.865100
									CHANNELS 3 Zrotation Yrotation Xrotation
									JOINT LeftHandRing2
									{
										OFFSET 3.154000 -0.000000 0.000000
										CHANNELS 3 Zrotation Yrotation Xrotation
										JOINT LeftHandRing3
										{
											OFFSET 2.937700 -0.000000 -0.000000
											CHANNELS 3 Zrotation Yrotation Xrotation
											JOINT LeftHandRing4
											{
												OFFSET 2.647500 -0.000000 0.000000
												CHANNELS 3 Zrotation Yrotation Xrotation
												End Site
												{
													OFFSET 0.000000 0.000000 0.000000
												}
											}
										}
									}
								}
								JOINT LeftHandPinky1
								{
									OFFSET 8.077800 -0.488700 -3.806100
									CHANNELS 3 Zrotation Yrotation Xrotation
									JOINT LeftHandPinky2
									{
										OFFSET 3.600000 -0.000000 -0.000000
										CHANNELS 3 Zrotation Yrotation Xrotation
										JOINT LeftHandPinky3
										{
											OFFSET 2.114200 0.000000 -0.000000
											CHANNELS 3 Zrotation Yrotation Xrotation
											JOINT LeftHandPinky4
											{
												OFFSET 1.975700 0.000000 -0.000000
												CHANNELS 3 Zrotation Yrotation Xrotation
												End Site
												{
													OFFSET 0.000000 0.000000 0.000000
												}
											}
										}
									}
								}
							}
						}
					}
				}
				JOINT RightShoulder
				{
					OFFSET -4.570000 10.946200 -2.628000
					CHANNELS 3 Zrotation Yrotation Xrotation
					JOINT RightArm
					{
						OFFSET -10.592800 -0.524800 -2.232100
						CHANNELS 3 Zrotation Yrotation Xrotation
						JOINT RightForeArm
						{
							OFFSET -27.841500 -0.000000 0.000000
							CHANNELS 3 Zrotation Yrotation Xrotation
							JOINT RightHand
							{
								OFFSET -28.328800 -0.000000 0.000100
								CHANNELS 3 Zrotation Yrotation Xrotation
								JOINT RightHandPinky1
								{
									OFFSET -8.076700 -0.488500 -3.806000
									CHANNELS 3 Zrotation Yrotation Xrotation
									JOINT RightHandPinky2
									{
										OFFSET -3.600000 0.000000 0.000100
										CHANNELS 3 Zrotation Yrotation Xrotation
										JOINT RightHandPinky3
										{
											OFFSET -2.114200 0.000000 0.000000
											CHANNELS 3 Zrotation Yrotation Xrotation
											JOINT RightHandPinky4
											{
												OFFSET -1.975700 -0.000000 -0.000000
												CHANNELS 3 Zrotation Yrotation Xrotation
												End Site
												{
													OFFSET 0.000000 0.000000 0.000000
												}
											}
										}
									}
								}
								JOINT RightHandRing1
								{
									OFFSET -9.103600 -0.043900 -1.865100
									CHANNELS 3 Zrotation Yrotation Xrotation
									JOINT RightHandRing2
									{
										OFFSET -3.154000 0.000000 0.000000
										CHANNELS 3 Zrotation Yrotation Xrotation
										JOINT RightHandRing3
										{
											OFFSET -2.937700 -0.000000 -0.000000
											CHANNELS 3 Zrotation Yrotation Xrotation
											JOINT RightHandRing4
											{
												OFFSET -2.647500 0.000000 -0.000000
												CHANNELS 3 Zrotation Yrotation Xrotation
												End Site
												{
													OFFSET 0.000000 0.000000 0.000000
												}
											}
										}
									}
								}
								JOINT RightHandMiddle1
								{
									OFFSET -9.532500 -0.000000 0.000000
									CHANNELS 3 Zrotation Yrotation Xrotation
									JOINT RightHandMiddle2
									{
										OFFSET -3.698200 0.000000 -0.000000
										CHANNELS 3 Zrotation Yrotation Xrotation
										JOINT RightHandMiddle3
										{
											OFFSET -2.950900 -0.000000 -0.000000
											CHANNELS 3 Zrotation Yrotation Xrotation
											JOINT RightHandMiddle4
											{
												OFFSET -2.833900 0.000000 0.000100
												CHANNELS 3 Zrotation Yrotation Xrotation
												End Site
												{
													OFFSET 0.000000 0.000000 0.000000
												}
											}
										}
									}
								}
								JOINT RightHandIndex1
								{
									OFFSET -9.108300 -0.516800 2.260100
									CHANNELS 3 Zrotation Yrotation Xrotation
									JOINT RightHandIndex2
									{
										OFFSET -3.676400 0.000000 0.000000
										CHANNELS 3 Zrotation Yrotation Xrotation
										JOINT RightHandIndex3
										{
											OFFSET -2.883100 -0.000000 0.000000
											CHANNELS 3 Zrotation Yrotation Xrotation
											JOINT RightHandIndex4
											{
												OFFSET -2.392700 0.000000 0.000000
												CHANNELS 3 Zrotation Yrotation Xrotation
												End Site
												{
													OFFSET 0.000000 0.000000 0.000000
												}
											}
										}
									}
								}
								JOINT RightHandThumb1
								{
									OFFSET -2.464800 -1.572700 2.682600
									CHANNELS 3 Zrotation Yrotation Xrotation
									JOINT RightHandThumb2
									{
										OFFSET -3.229800 -1.864700 1.864700
										CHANNELS 3 Zrotation Yrotation Xrotation
										JOINT RightHandThumb3
										{
											OFFSET -2.652600 -1.531400 1.531400
											CHANNELS 3 Zrotation Yrotation Xrotation
											JOINT RightHandThumb4
											{
												OFFSET -1.954600 -1.128500 1.128500
												CHANNELS 3 Zrotation Yrotation Xrotation
												End Site
												{
													OFFSET 0.000000 0.000000 0.000000
												}
											}
										}
									}
								}
							}
						}
					}
				}
			}
		}
	}
	JOINT LeftUpLeg
	{
		OFFSET 8.207800 -6.751700 -1.599600
		CHANNELS 3 Zrotation Yrotation Xrotation
		JOINT LeftLeg
		{
			OFFSET -0.000000 -44.370500 0.284600
			CHANNELS 3 Zrotation Yrotation Xrotation
			JOINT LeftFoot
			{
				OFFSET 0.000000 -44.427900 -2.982200
				CHANNELS 3 Zrotation Yrotation Xrotation
				JOINT LeftToeBase
				{
					OFFSET -0.000000 -8.728700 10.710600
					CHANNELS 3 Zrotation Yrotation Xrotation
					JOINT LeftToe_End
					{
						OFFSET -0.000000 -0.000700 9.278100
						CHANNELS 3 Zrotation Yrotation Xrotation
						End Site
						{
							OFFSET 0.000000 0.000000 0.000000
						}
					}
				}
			}
		}
	}
	JOINT RightUpLeg
	{
		OFFSET -8.207800 -6.751700 -1.599600
		CHANNELS 3 Zrotation Yrotation Xrotation
		JOINT RightLeg
		{
			OFFSET 0.000000 -44.370500 0.286200
			CHANNELS 3 Zrotation Yrotation Xrotation
			JOINT RightFoot
			{
				OFFSET 0.000000 -44.427700 -2.983800
				CHANNELS 3 Zrotation Yrotation Xrotation
				JOINT RightToeBase
				{
					OFFSET -0.000000 -8.728700 10.710600
					CHANNELS 3 Zrotation Yrotation Xrotation
					JOINT RightToe_End
					{
						OFFSET -0.000000 -0.000700 9.278100
						CHANNELS 3 Zrotation Yrotation Xrotation
						End Site
						{
							OFFSET 0.000000 0.000000 0.000000
						}
					}
				}
			}
		}
	}
}
MOTION
Frames: 4
Frame Time: 0.033333
-1.024395 96.370537 71.308777 -1.224011 -8.984051 3.964337 1.612993 1.081713 0.691775 -2.329241 2.479444 1.815993 -2.345506 2.478022 1.797962 0.452003 -0.140757 0.732209 2.062134 -0.462076 -9.667091 0.000000 0.000000 0.000000 0.000000 0.000000 0.000000 0.000000 0.000000 0.000000 -11.321603 -5.733887 1.931461 -62.400097 15.128054 -17.624674 -0.000214 -0.123349 0.000004 -7.545689 2.841973 39.166393 7.150707 11.768554 -0.221230 2.707343 15.795987 5.168022 2.526901 1.610831 -0.504227 0.000000 0.000000 0.000000 -15.567784 1.848022 -0.252645 -15.567744 1.848007 -0.252616 -15.567793 1.847993 -0.252638 0.000000 0.000000 0.000000 -16.590418 1.966000 -0.286649 -16.622414 1.969695 -0.287780 -16.606401 1.967854 -0.287221 0.000000 0.000000 0.000000 -18.684143 2.205576 -0.362880 -18.684147 2.205558 -0.362877 -18.684126 2.205561 -0.362860 0.000000 0.000000 0.000000 -25.499485 7.072975 -0.653978 -26.433084 -0.625622 1.095398 -25.961807 3.012689 -0.694629 0.000000 0.000000 0.000000 10.946633 6.616692 2.533998 59.866203 25.666300 -8.440075 -0.000006 26.157944 -0.000006 15.136866 7.812531 6.777232 33.940952 -3.879152 -1.183716 33.940861 -3.876234 -1.182821 33.940933 -3.877564 -1.183721 0.000000 0.000000 0.000000 30.121519 -3.486188 -0.938355 30.121563 -3.486194 -0.938351 30.121563 -3.486188 -0.938358 0.000000 0.000000 0.000000 25.958630 -3.041698 -0.701231 25.958681 -3.041698 -0.701226 25.958673 -3.043722 -0.701237 0.000000 0.000000 0.000000 22.838785 -2.697686 -0.545000 22.838806 -2.697691 -0.544995 22.838800 -2.697691 -0.544998 0.000000 0.000000 0.000000 -8.010626 -14.396297 -0.071712 -2.954304 -19.176516 6.258901 -2.102390 0.077454 -1.273232 0.000000 0.000000 0.000000 -0.212424 0.839367 -39.913525 5.356560 6.531177 32.445683 4.063839 16.674232 -0.977184 -0.000006 0.000003 -0.046396 0.000000 0.000000 0.000000 -4.490398 -13.543843 7.280572 3.570491 8.862582 19.496449 1.354280 0.438079 -27.014505 0.000002 -0.000004 -14.652185 0.000000 0.000000 0.000000 
-0.832582 95.869423 76.856712 -0.140808 -9.968138 3.571393 0.510344 0.869400 0.770578 -2.750108 2.891122 1.796213 -2.762585 2.888044 1.783198 0.750106 -0.200183 0.798717 2.467025 -0.465891 -9.083980 0.000000 0.000000 0.000000 0.000000 0.000000 0.000000 0.000000 0.000000 0.000000 -11.068811 -5.563717 1.858974 -63.592384 19.862125 -17.627110 -0.000174 -0.075332 -0.000008 -8.012603 2.245302 38.811493 7.150707 11.768554 -0.221230 2.707343 15.795987 5.168022 2.526901 1.610831 -0.504227 0.000000 0.000000 0.000000 -15.567784 1.848022 -0.252645 -15.567744 1.848007 -0.252616 -15.567793 1.847993 -0.252638 0.000000 0.000000 0.000000 -16.590418 1.966000 -0.286649 -16.622414 1.969695 -0.287780 -16.606401 1.967854 -0.287221 0.000000 0.000000 0.000000 -18.684143 2.205576 -0.362880 -18.684147 2.205558 -0.362877 -18.684126 2.205561 -0.362860 0.000000 0.000000 0.000000 -25.499485 7.072975 -0.653978 -26.433084 -0.625622 1.095398 -25.961807 3.012689 -0.694629 0.000000 0.000000 0.000000 11.009899 6.401783 2.497484 59.664803 23.482025 -6.990491 0.000013 31.593946 0.000001 15.187899 7.665730 3.925072 33.940952 -3.879152 -1.183716 33.940861 -3.876234 -1.182821 33.940933 -3.877564 -1.183721 0.000000 0.000000 0.000000 30.121519 -3.486188 -0.938355 30.121563 -3.486194 -0.938351 30.121563 -3.486188 -0.938358 0.000000 0.000000 0.000000 25.958630 -3.041698 -0.701231 25.958681 -3.041698 -0.701226 25.958673 -3.043722 -0.701237 0.000000 0.000000 0.000000 22.838785 -2.697686 -0.545000 22.838806 -2.697691 -0.544995 22.838800 -2.697691 -0.544998 0.000000 0.000000 0.000000 -8.010626 -14.396297 -0.071712 -2.954304 -19.176516 6.258901 -2.102390 0.077454 -1.273232 0.000000 0.000000 0.000000 -1.314224 1.269598 -39.606133 6.071664 7.305067 33.445797 1.597111 16.360516 0.037964 -0.000002 -0.000000 -0.044161 0.000000 0.000000 0.000000 -7.629232 -12.831765 11.491830 4.107260 11.349555 17.876207 1.692220 0.510041 -23.217232 -0.000000 0.000017 -24.905460 0.000000 0.000000 0.000000 
-0.614751 95.652519 82.412987 1.812735 -10.402172 2.817342 -0.498272 0.576606 0.856343 -3.515245 3.026764 1.841692 -3.524884 3.020832 1.832735 0.906230 -0.219946 0.822600 3.125975 -0.485751 -8.795815 0.000000 0.000000 0.000000 0.000000 0.000000 0.000000 0.000000 0.000000 0.000000 -10.922359 -5.428850 1.809595 -64.116165 22.018837 -17.281954 -0.000206 -0.023132 -0.000004 -8.368983 1.620787 38.237499 7.150707 11.768554 -0.221230 2.707343 15.795987 5.168022 2.526901 1.610831 -0.504227 0.000000 0.000000 0.000000 -15.567784 1.848022 -0.252645 -15.567744 1.848007 -0.252616 -15.567793 1.847993 -0.252638 0.000000 0.000000 0.000000 -16.590418 1.966000 -0.286649 -16.622414 1.969695 -0.287780 -16.606401 1.967854 -0.287221 0.000000 0.000000 0.000000 -18.684143 2.205576 -0.362880 -18.684147 2.205558 -0.362877 -18.684126 2.205561 -0.362860 0.000000 0.000000 0.000000 -25.499485 7.072975 -0.653978 -26.433084 -0.625622 1.095398 -25.961807 3.012689 -0.694629 0.000000 0.000000 0.000000 11.039891 6.153971 2.443521 60.290051 19.663908 -5.737711 0.000023 35.909889 0.000005 14.675136 7.664716 0.858772 33.940952 -3.879152 -1.183716 33.940861 -3.876234 -1.182821 33.940933 -3.877564 -1.183721 0.000000 0.000000 0.000000 30.121519 -3.486188 -0.938355 30.121563 -3.486194 -0.938351 30.121563 -3.486188 -0.938358 0.000000 0.000000 0.000000 25.958630 -3.041698 -0.701231 25.958681 -3.041698 -0.701226 25.958673 -3.043722 -0.701237 0.000000 0.000000 0.000000 22.838785 -2.697686 -0.545000 22.838806 -2.697691 -0.544995 22.838800 -2.697691 -0.544998 0.000000 0.000000 0.000000 -8.010626 -14.396297 -0.071712 -2.954304 -19.176516 6.258901 -2.102390 0.077454 -1.273232 0.000000 0.000000 0.000000 -3.580424 1.654042 -38.306782 6.359901 7.145597 35.690792 0.530448 14.157223 -0.386487 -0.000004 -0.000005 -0.000012 0.000000 0.000000 0.000000 -10.630231 -10.471754 13.843445 4.331804 11.902072 18.996647 2.081320 0.276787 -15.947800 0.000002 -0.000005 -35.472317 0.000000 0.000000 0.000000 
-0.382073 95.253441 87.733948 4.629779 -10.240933 1.655757 -1.841524 0.452844 0.958157 -4.456059 2.821053 2.011801 -4.464816 2.811555 2.005457 0.880185 -0.202587 0.892584 3.801500 -0.539356 -8.973349 0.000000 0.000000 0.000000 0.000000 0.000000 0.000000 0.000000 0.000000 0.000000 -10.935159 -5.473985 1.820732 -63.462788 21.247858 -16.355364 -0.000212 -0.012305 0.000006 -8.856939 1.621271 37.419762 7.150707 11.768554 -0.221230 2.707343 15.795987 5.168022 2.526901 1.610831 -0.504227 0.000000 0.000000 0.000000 -15.567784 1.848022 -0.252645 -15.567744 1.848007 -0.252616 -15.567793 1.847993 -0.252638 0.000000 0.000000 0.000000 -16.590418 1.966000 -0.286649 -16.622414 1.969695 -0.287780 -16.606401 1.967854 -0.287221 0.000000 0.000000 0.000000 -18.684143 2.205576 -0.362880 -18.684147 2.205558 -0.362877 -18.684126 2.205561 -0.362860 0.000000 0.000000 0.000000 -25.499485 7.072975 -0.653978 -26.433084 -0.625622 1.095398 -25.961807 3.012689 -0.694629 0.000000 0.000000 0.000000 10.999537 5.947404 2.381660 61.925137 15.340270 -4.993117 -0.000012 37.774490 0.000005 13.824711 7.794343 -1.495877 33.940952 -3.879152 -1.183716 33.940861 -3.876234 -1.182821 33.940933 -3.877564 -1.183721 0.000000 0.000000 0.000000 30.121519 -3.486188 -0.938355 30.121563 -3.486194 -0.938351 30.121563 -3.486188 -0.938358 0.000000 0.000000 0.000000 25.958630 -3.041698 -0.701231 25.958681 -3.041698 -0.701226 25.958673 -3.043722 -0.701237 0.000000 0.000000 0.000000 22.838785 -2.697686 -0.545000 22.838806 -2.697691 -0.544995 22.838800 -2.697691 -0.544998 0.000000 0.000000 0.000000 -8.010626 -14.396297 -0.071712 -2.954304 -19.176516 6.258901 -2.102390 0.077454 -1.273232 0.000000 0.000000 0.000000 -7.020411 0.930410 -36.319897 8.033688 8.031528 40.334888 -1.177470 12.767448 -6.381808 -0.000004 -0.000005 -0.000018 0.000000 0.000000 0.000000 -13.793951 -7.002860 8.885546 2.663357 3.206250 37.642273 -2.268202 -0.002914 9.226083 1.078772 0.797112 -37.235977 0.000000 0.000000 0.000000 
